<svg data-v-70b83f88="" version="1.0"
    xmlns="http://www.w3.org/2000/svg"
    xmlns:xlink="http://www.w3.org/1999/xlink" width="100%" height="100%" viewBox="0 0 340.000000 250.000000" preserveAspectRatio="xMidYMid meet" color-interpolation-filters="sRGB" style="margin: auto;">
    <rect data-v-70b83f88="" x="0" y="0" width="100%" height="100%" fill="#073763" fill-opacity="1" class="background"></rect>
    <rect data-v-70b83f88="" x="0" y="0" width="100%" height="100%" fill="url(#watermark)" fill-opacity="1" class="watermarklayer"></rect>
    <g data-v-70b83f88="" fill="#EEEEEE" class="icon-text-wrapper icon-svg-group iconsvg" transform="translate(7.01641845703125,83.915283203125)">
        <g class="iconsvg-imagesvg" transform="translate(0,0)">
            <g>
                <rect fill="#EEEEEE" fill-opacity="0" stroke-width="2" x="0" y="0" width="81.6" height="82.16943417885949" class="image-rect"></rect>
                <svg x="0" y="0" width="81.6" height="82.16943417885949" filtersec="colorsb4241614986" class="image-svg-svg primary" style="overflow: visible;">
                    <svg xmlns="http://www.w3.org/2000/svg" viewBox="-0.000003814697265625 0.001739501953125 147.25025939941406 148.27825927734375">
                        <path d="M5.15 31.15S59 81.35 115.58 67.71c0 0-2.06 68.21-79 80.57 0 0 51-18.53 56.64-66.93-.03 0-65.16.77-88.07-50.2z" fill="#1274c6"></path>
                        <path d="M45.35 117.87a59.74 59.74 0 0 1-8.74-7.22 59 59 0 0 1-12.28-17.87 89.39 89.39 0 0 1-13.68-10.91 68.41 68.41 0 0 0 19 35.77A69.73 69.73 0 0 0 39.78 126a76.58 76.58 0 0 0 5.57-8.13zM127.08 20.18a68.93 68.93 0 0 0-97.46 0 69.66 69.66 0 0 0-9.72 12.19c2.31 1.74 5 3.69 8.08 5.74a59.28 59.28 0 0 1 8.63-10.94 59 59 0 1 1 64.74 96.13 89.75 89.75 0 0 1-15 13.94l-.2.14a68.9 68.9 0 0 0 61.1-68.47 68.49 68.49 0 0 0-20.17-48.73z" fill="#22aeee"></path>
                        <path d="M0 48.92s25.74 39.64 81.09 40.8c0 0-7.21 33.27-40.55 48.1 0 0 16.39-15.23 20.73-38.25 0 0-49.17-9.98-61.27-50.65zM70.25 59s11.94-17.71 38.88-16.72c5.93.22 12.11 1.06 18.94 5.27 0 0-10.3-1.06-11.43 11.35-16.9 6.48-46.39.1-46.39.1z" fill="#1274c6"></path>
                    </svg>
                </svg>                <!----></g>
        </g>
        <g transform="translate(88.5999984741211,16.944717407226562)">
            <g data-gra="path-name" fill-rule="" class="tp-name iconsvg-namesvg">
                <g transform="scale(1.4200000000000002)">
                    <g>
                        <path d="M28.25-32.73L28.25-32.73 34.37-32.73 34.37-0.05 28.76-0.05 28.76-23.21 17.98-6.54 7.24-23.21 7.24-0.05 1.63-0.05 1.63-32.73 7.75-32.73 17.98-16.86 28.25-32.73ZM57.39-32.68L57.39-32.68 72.14 0 65.98 0 63.46-5.6 63.46-5.6 60.93-11.21 60.93-11.21 54.3-25.87 47.67-11.21 56.17-11.21 58.69-5.6 45.15-5.6 42.63 0 36.47 0 51.22-32.68 57.39-32.68ZM95.77-9.34L95.77-9.34Q95.77-7.05 95.02-5.21 94.27-3.36 92.9-2.08 91.52-0.79 89.56-0.09 87.6 0.61 85.17 0.61L85.17 0.61Q81.29 0.61 78.26-0.63 75.22-1.87 73.26-3.46L73.26-3.46 77.14-7.33Q78.68-5.93 80.59-5.18L80.59-5.18Q81.76-4.72 82.79-4.58 83.81-4.44 84.47-4.44L84.47-4.44Q85.68-4.44 86.69-4.74 87.69-5.04 88.44-5.56L88.44-5.56Q90.02-6.72 90.02-8.64L90.02-8.64Q90.02-9.81 89.18-10.74L89.18-10.74Q88.53-11.49 87.5-11.95L87.5-11.95Q86.66-12.42 85.73-12.7 84.79-12.98 84.05-13.21L84.05-13.21Q83.81-13.31 83.63-13.33 83.44-13.35 83.3-13.45L83.3-13.45Q83.21-13.45 83.02-13.54L83.02-13.54Q82.04-13.82 80.19-14.52 78.35-15.22 76.53-16.44L76.53-16.44Q72.28-19.28 72.28-23.44L72.28-23.44Q72.28-26.19 73.24-28.09 74.19-29.98 75.74-31.17 77.28-32.36 79.17-32.87 81.06-33.39 82.88-33.39L82.88-33.39Q86.24-33.39 88.53-32.59 90.82-31.8 92.17-31L92.17-31Q92.87-30.58 93.36-30.19 93.85-29.79 94.23-29.46L94.23-29.46 90.26-25.45Q89-26.71 87.69-27.36L87.69-27.36Q85.73-28.3 83.58-28.3L83.58-28.3Q82.65-28.3 81.71-28.06 80.78-27.83 80.08-27.46L80.08-27.46Q78.02-26.19 78.02-24.14L78.02-24.14Q78.02-22.88 78.86-21.99L78.86-21.99Q79.47-21.29 80.55-20.73L80.55-20.73Q81.43-20.26 82.41-19.98 83.39-19.7 84.23-19.47L84.23-19.47 84.79-19.33Q85.03-19.24 85.68-19.05 86.34-18.86 87.22-18.49 88.11-18.12 89.16-17.6 90.21-17.09 91.24-16.39L91.24-16.39Q95.77-13.4 95.77-9.34ZM120.47-32.68L120.47-32.68 120.47-27.08 110.9-27.08 110.9 0 105.29 0 105.29-27.08 95.67-27.08 95.67-32.68 105.29-32.68 110.9-32.68 120.47-32.68ZM142.37-14.01L142.37-14.01 124.2-14.01 124.2-19.61 142.37-19.61 142.37-14.01ZM168.79-27.08L168.79-27.08 152.41-27.08 152.41-19.14 164.59-19.14 165.99-13.54 152.41-13.54 152.41 0 146.8 0 146.8-32.68 168.79-32.68 168.79-27.08Z" transform="translate(-1.6299999952316284, 33.38999938964844)"></path>
                    </g>                    <!---->                    <!---->                    <!---->                    <!---->                    <!---->                    <!---->                    <!----></g>
            </g>            <!----></g>
    </g>
    <defs v-gra="od"></defs>
</svg>