<?xml version="1.0"?>
<svg viewBox="0 0 68.000000 68.000000" xmlns="http://www.w3.org/2000/svg" xmlns:svg="http://www.w3.org/2000/svg" preserveAspectRatio="xMidYMid meet" version="1.0">
 <g class="layer">
  <title>Layer 1</title>
  <g class="iconsvg-imagesvg" id="svg_6">
   <g id="svg_7">
    <g id="svg_1" transform="matrix(0.7606, 0, 0, 0.793112, 0.2394, 3.39722)">
     <svg class="image-svg-svg primary" fill="#ffffff" height="82.17" id="svg_2" width="81.6" x="2.31" y="-1.86">
      <g id="svg_3">
       <svg fill="#ffffff" id="svg_11" viewBox="-0.000003814697265625 0.001739501953125 147.25025939941406 148.27825927734375" xmlns="http://www.w3.org/2000/svg">
        <path d="m5.15,31.15s53.85,50.2 110.43,36.56c0,0 -2.06,68.21 -79,80.57c0,0 51,-18.53 56.64,-66.93c-0.03,0 -65.16,0.77 -88.07,-50.2z" fill="#ffffff" id="svg_19"/>
        <path d="m45.35,117.87a59.74,59.74 0 0 1 -8.74,-7.22a59,59 0 0 1 -12.28,-17.87a89.39,89.39 0 0 1 -13.68,-10.91a68.41,68.41 0 0 0 19,35.77a69.73,69.73 0 0 0 10.13,8.36a76.58,76.58 0 0 0 5.57,-8.13zm81.73,-97.69a68.93,68.93 0 0 0 -97.46,0a69.66,69.66 0 0 0 -9.72,12.19c2.31,1.74 5,3.69 8.08,5.74a59.28,59.28 0 0 1 8.63,-10.94a59,59 0 1 1 64.74,96.13a89.75,89.75 0 0 1 -15,13.94l-0.2,0.14a68.9,68.9 0 0 0 61.1,-68.47a68.49,68.49 0 0 0 -20.17,-48.73z" fill="#ffffff" id="svg_13"/>
        <path d="m0,48.92s25.74,39.64 81.09,40.8c0,0 -7.21,33.27 -40.55,48.1c0,0 16.39,-15.23 20.73,-38.25c0,0 -49.17,-9.98 -61.27,-50.65zm70.25,10.08s11.94,-17.71 38.88,-16.72c5.93,0.22 12.11,1.06 18.94,5.27c0,0 -10.3,-1.06 -11.43,11.35c-16.9,6.48 -46.39,0.1 -46.39,0.1z" fill="#ffffff" id="svg_12"/>
       </svg>
      </g>
     </svg>
    </g>
    <!---->
   </g>
  </g>
 </g>

</svg>