<?xml version="1.0"?>
<svg viewBox="0 0 232.000000 68.000000" xmlns="http://www.w3.org/2000/svg" xmlns:svg="http://www.w3.org/2000/svg" preserveAspectRatio="xMidYMid meet" version="1.0">
 <g class="layer">
  <title>Layer 1</title>
  <g class="iconsvg-imagesvg" id="svg_6" transform="matrix(1, 0, 0, 1, 0, 0)">
   <g id="svg_7">
    <g id="svg_1" transform="matrix(0.674816, 0, 0, 0.732262, 0.325184, 0.514056)">
     <svg class="image-svg-svg primary" height="82.17" id="svg_9" width="81.6" x="1" y="1.92">
      <g id="svg_10">
       <svg id="svg_20" viewBox="-0.000003814697265625 0.001739501953125 147.25025939941406 148.27825927734375" xmlns="http://www.w3.org/2000/svg">
        <path d="m5.15,31.15s53.85,50.2 110.43,36.56c0,0 -2.06,68.21 -79,80.57c0,0 51,-18.53 56.64,-66.93c-0.03,0 -65.16,0.77 -88.07,-50.2z" fill="#1274c6" id="svg_23"/>
        <path d="m45.35,117.87a59.74,59.74 0 0 1 -8.74,-7.22a59,59 0 0 1 -12.28,-17.87a89.39,89.39 0 0 1 -13.68,-10.91a68.41,68.41 0 0 0 19,35.77a69.73,69.73 0 0 0 10.13,8.36a76.58,76.58 0 0 0 5.57,-8.13zm81.73,-97.69a68.93,68.93 0 0 0 -97.46,0a69.66,69.66 0 0 0 -9.72,12.19c2.31,1.74 5,3.69 8.08,5.74a59.28,59.28 0 0 1 8.63,-10.94a59,59 0 1 1 64.74,96.13a89.75,89.75 0 0 1 -15,13.94l-0.2,0.14a68.9,68.9 0 0 0 61.1,-68.47a68.49,68.49 0 0 0 -20.17,-48.73z" fill="#22aeee" id="svg_22"/>
        <path d="m0,48.92s25.74,39.64 81.09,40.8c0,0 -7.21,33.27 -40.55,48.1c0,0 16.39,-15.23 20.73,-38.25c0,0 -49.17,-9.98 -61.27,-50.65zm70.25,10.08s11.94,-17.71 38.88,-16.72c5.93,0.22 12.11,1.06 18.94,5.27c0,0 -10.3,-1.06 -11.43,11.35c-16.9,6.48 -46.39,0.1 -46.39,0.1z" fill="#1274c6" id="svg_21"/>
       </svg>
      </g>
     </svg>
    </g>
    <!---->
   </g>
  </g>
  <g id="svg_14">
   <g class="tp-name iconsvg-namesvg" data-gra="path-name" id="svg_15">
    <g id="svg_16" transform="translate(7.01642, 83.9153) scale(1.42)">
     <g id="svg_17">
      <path d="m59.02,-82.2l0,0l4.31,0l0,27.31l-3.95,0l0,-19.36l-7.59,13.93l-7.56,-13.93l0,19.36l-3.95,0l0,-27.31l4.31,0l7.21,13.26l7.23,-13.26zm20.52,0.04l0,0l10.39,27.31l-4.34,0l-1.77,-4.68l0,0l-1.78,-4.69l0,0l-4.67,-12.25l-4.67,12.25l5.99,0l1.77,4.69l-9.54,0l-1.77,4.68l-4.34,0l10.39,-27.31l4.35,0zm27.03,19.51l0,0q0,1.91 -0.53,3.45q-0.53,1.55 -1.49,2.62q-0.97,1.08 -2.35,1.66q-1.38,0.59 -3.09,0.59l0,0q-2.73,0 -4.87,-1.04q-2.14,-1.04 -3.52,-2.37l0,0l2.73,-3.23q1.08,1.17 2.43,1.8l0,0q0.82,0.38 1.55,0.5q0.72,0.12 1.18,0.12l0,0q0.85,0 1.56,-0.25q0.7,-0.25 1.23,-0.69l0,0q1.11,-0.97 1.11,-2.57l0,0q0,-0.98 -0.59,-1.76l0,0q-0.46,-0.63 -1.18,-1.01l0,0q-0.59,-0.39 -1.25,-0.63q-0.66,-0.23 -1.18,-0.43l0,0q-0.17,-0.08 -0.3,-0.1q-0.13,-0.02 -0.23,-0.1l0,0q-0.06,0 -0.2,-0.08l0,0q-0.69,-0.23 -1.99,-0.82q-1.3,-0.59 -2.58,-1.6l0,0q-2.99,-2.37 -2.99,-5.85l0,0q0,-2.3 0.68,-3.89q0.67,-1.58 1.76,-2.57q1.08,-0.99 2.42,-1.42q1.33,-0.43 2.61,-0.43l0,0q2.37,0 3.98,0.67q1.61,0.66 2.56,1.33l0,0q0.49,0.35 0.84,0.68q0.35,0.33 0.61,0.61l0,0l-2.8,3.35q-0.89,-1.05 -1.81,-1.6l0,0q-1.38,-0.79 -2.89,-0.79l0,0q-0.66,0 -1.32,0.2q-0.66,0.19 -1.15,0.5l0,0q-1.45,1.06 -1.45,2.77l0,0q0,1.05 0.59,1.8l0,0q0.43,0.59 1.19,1.05l0,0q0.62,0.39 1.31,0.63q0.69,0.23 1.28,0.43l0,0l0.39,0.12q0.17,0.08 0.63,0.23q0.46,0.16 1.08,0.47q0.63,0.31 1.37,0.74q0.74,0.43 1.46,1.01l0,0q3.19,2.5 3.19,5.89zm17.4,-19.51l0,0l0,4.68l-6.74,0l0,22.63l-3.95,0l0,-22.63l-6.78,0l0,-4.68l6.78,0l3.95,0l6.74,0zm15.42,15.6l0,0l-12.8,0l0,-4.68l12.8,0l0,4.68zm18.61,-10.92l0,0l-11.54,0l0,6.64l8.58,0l0.99,4.68l-9.56,0l0,11.32l-3.95,0l0,-27.31l15.49,0l0,4.68z" fill="#bfbfbf" id="svg_18" transform="translate(-1.63, 33.39)"/>
     </g>
     <!---->
     <!---->
     <!---->
     <!---->
     <!---->
     <!---->
     <!---->
    </g>
   </g>
   <!---->
  </g>
 </g>

</svg>